<svg xmlns="http://www.w3.org/2000/svg" version="1.0" width="187.000000pt" height="187.000000pt" viewBox="0 0 187.000000 187.000000" preserveAspectRatio="xMidYMid meet">  <g transform="translate(0.000000,187.000000) scale(0.050000,-0.050000)" fill="#ff8ae0" stroke="none"> <path d="M1601 3538 c-1333 -261 -1855 -1924 -904 -2878 1388 -1393 3617 213 2749 1980 -315 641 -1130 1038 -1845 898z m711 -198 c919 -236 1410 -1277 1007 -2138 -453 -968 -1744 -1195 -2486 -437 -775 792 -511 2087 513 2512 126 52 195 70 434 111 93 16 382 -10 532 -48z"/> <path d="M1990 2751 c-44 -14 -129 -49 -189 -77 -59 -29 -115 -48 -122 -43 -23 14 -341 -31 -384 -54 -59 -31 -110 -169 -134 -363 -13 -102 -48 -239 -83 -329 -36 -90 -66 -210 -72 -286 l-11 -130 82 -74 c45 -41 143 -105 218 -143 96 -49 158 -98 214 -170 141 -179 224 -192 481 -72 98 45 185 69 288 79 281 27 348 87 376 340 6 56 47 191 91 301 161 403 136 500 -174 671 -103 57 -167 111 -238 200 -131 165 -202 196 -343 150z m230 -103 c103 -94 101 -115 -6 -68 -47 21 -144 46 -215 55 l-129 17 90 32 c134 49 172 43 260 -36z m13 -144 c269 -136 448 -467 398 -735 l-13 -71 -64 126 c-118 231 -390 463 -688 587 -172 72 -166 64 -97 123 83 71 289 58 464 -30z m-732 20 c-97 -67 -168 -134 -224 -211 -64 -89 -71 -68 -26 85 35 117 97 161 229 160 l70 0 -49 -34z m101 -79 c-177 -210 -253 -482 -238 -850 10 -242 4 -246 -94 -54 -167 326 -59 717 258 931 141 95 169 85 74 -27z m206 -68 c113 -43 145 -77 73 -77 -22 0 -109 -22 -194 -49 -187 -60 -189 -59 -107 68 73 115 77 116 228 58z m922 -144 c76 -62 78 -180 5 -373 l-50 -130 -1 141 c-2 154 -41 294 -117 413 l-48 78 75 -40 c42 -22 103 -62 136 -89z m-620 -18 c66 -42 70 -51 70 -156 0 -187 -34 -205 -152 -79 -54 58 -142 135 -195 171 l-98 66 88 19 c143 32 213 27 287 -21z m-355 -75 c76 -46 84 -80 20 -80 -25 0 -71 -14 -102 -30 -87 -46 -101 -13 -39 92 41 69 39 68 121 18z m-206 -89 c-16 -54 -29 -134 -30 -179 l0 -82 -40 47 c-66 80 -44 248 39 292 66 35 66 37 31 -78z m949 -251 c72 -134 75 -151 27 -166 -19 -6 -89 -33 -155 -61 -66 -27 -168 -64 -227 -81 l-107 -31 32 49 c18 28 45 71 62 96 40 62 110 340 111 442 l1 82 97 -107 c54 -58 125 -159 159 -223z m-618 182 c0 -35 -7 -36 -71 -17 -74 23 -60 54 26 55 31 0 45 -12 45 -38z m129 -61 l76 -78 -67 -42 c-38 -22 -75 -41 -82 -41 -11 0 -15 240 -5 240 0 0 35 -35 78 -79z m-311 -6 c10 -25 14 -49 10 -53 -14 -15 -87 63 -76 81 19 31 49 18 66 -28z m1 -114 l109 -98 -72 -13 c-142 -27 -165 -12 -172 105 -7 128 -2 128 135 6z m-538 -135 c12 -57 55 -156 96 -220 41 -64 83 -129 92 -144 22 -37 -127 47 -219 123 -59 49 -70 70 -70 140 0 101 67 331 75 255 3 -28 15 -97 26 -154z m708 149 c-19 -62 -24 -64 -59 -35 -27 23 -27 28 5 52 52 39 69 34 54 -17z m-257 -238 c43 -40 114 -91 158 -113 l80 -40 -70 -12 c-192 -33 -328 -50 -336 -43 -18 18 -43 325 -31 386 l12 66 55 -86 c30 -47 90 -118 132 -158z m517 178 c-90 -291 -230 -353 -423 -186 l-51 44 129 35 c71 19 174 61 228 92 120 71 135 73 117 15z m405 -261 c-186 -317 -607 -441 -939 -278 -169 83 -169 95 6 111 263 25 728 145 898 233 92 47 96 39 35 -66z m57 -122 c-19 -127 -71 -184 -192 -210 -159 -34 -176 -26 -78 36 93 58 259 230 259 268 0 11 6 15 12 8 7 -7 7 -52 -1 -102z m-739 -287 c149 -12 149 -27 -1 -74 -133 -42 -170 -32 -272 75 -106 110 -100 121 33 60 66 -30 165 -55 240 -61z"/> </g> </svg>