<svg xmlns="http://www.w3.org/2000/svg" version="1.0" width="96.000000pt" height="96.000000pt" viewBox="0 0 96.000000 96.000000" preserveAspectRatio="xMidYMid meet">

<g transform="translate(0.000000,96.000000) scale(0.100000,-0.100000)" fill="#000000" stroke="none">
<path d="M475 916 l-50 -23 82 -5 c61 -3 95 -11 134 -31 29 -14 55 -24 57 -22 2 2 -18 26 -45 54 -43 44 -54 51 -89 51 -21 0 -61 -11 -89 -24z"/>
<path d="M415 862 c-63 -39 -61 -46 13 -78 185 -78 334 -209 389 -341 10 -24 21 -43 25 -43 3 0 9 27 13 59 22 189 -119 374 -314 411 -74 14 -91 13 -126 -8z"/>
<path d="M207 856 c-26 -7 -54 -22 -62 -32 -15 -20 -35 -99 -35 -137 0 -18 5 -14 26 18 42 62 65 85 128 126 l59 39 -34 -1 c-19 0 -56 -6 -82 -13z"/>
<path d="M303 834 c-70 -34 -155 -127 -184 -201 -27 -72 -30 -195 -5 -263 17 -45 76 -140 87 -140 3 0 2 21 -2 47 -32 197 24 419 135 536 51 53 45 58 -31 21z"/>
<path d="M317 767 c-27 -36 -60 -97 -55 -102 2 -2 35 7 74 20 40 13 93 27 118 30 53 8 57 16 19 31 -16 6 -51 21 -80 32 l-51 21 -25 -32z"/>
<path d="M800 725 c50 -73 63 -113 69 -220 l6 -100 28 75 c40 106 45 158 17 192 -18 23 -130 98 -146 98 -3 0 9 -20 26 -45z"/>
<path d="M445 698 c-27 -5 -54 -13 -58 -17 -5 -5 11 -20 36 -34 24 -14 71 -55 105 -91 61 -65 61 -66 77 -44 9 15 15 45 15 85 0 61 -1 63 -37 88 -40 27 -58 28 -138 13z"/>
<path d="M274 641 c-36 -22 -59 -78 -50 -117 4 -13 15 -38 25 -54 l18 -31 7 68 c4 37 16 87 26 110 21 48 18 51 -26 24z"/>
<path d="M319 614 c-23 -51 -20 -63 14 -45 12 6 45 18 72 25 l50 12 -46 27 c-25 15 -51 27 -58 27 -7 0 -21 -21 -32 -46z"/>
<path d="M636 571 c-9 -94 -37 -183 -75 -243 -17 -27 -29 -48 -28 -48 1 0 35 9 75 20 86 24 212 79 212 92 0 26 -69 135 -120 191 l-57 61 -7 -73z"/>
<path d="M388 572 c-14 -6 -7 -11 27 -23 l45 -17 0 24 c0 20 -5 24 -27 23 -16 0 -36 -4 -45 -7z"/>
<path d="M480 532 c0 -22 -3 -54 -6 -71 l-7 -32 29 13 c16 7 39 19 51 26 l23 14 -26 32 c-15 17 -35 37 -45 44 -18 12 -19 10 -19 -26z"/>
<path d="M326 542 c-3 -5 9 -22 26 -38 l30 -29 -7 25 c-13 42 -36 62 -49 42z"/>
<path d="M380 535 c0 -3 5 -15 10 -26 9 -16 14 -17 31 -8 12 6 17 14 13 19 -12 11 -54 23 -54 15z"/>
<path d="M290 466 c0 -79 7 -84 88 -66 l56 12 -29 22 c-17 11 -49 38 -72 60 l-43 39 0 -67z"/>
<path d="M63 495 c-17 -30 -43 -125 -43 -156 0 -15 11 -40 24 -56 28 -32 134 -99 143 -89 3 3 -10 30 -30 58 -49 72 -68 121 -76 198 -6 55 -8 62 -18 45z"/>
<path d="M421 481 l-24 -18 24 -17 c22 -15 24 -15 31 1 9 24 10 53 1 53 -5 0 -19 -9 -32 -19z"/>
<path d="M212 365 c3 -69 7 -128 10 -131 5 -5 124 8 207 23 l35 6 -58 29 c-64 32 -125 91 -163 155 -14 24 -27 43 -30 43 -3 0 -4 -56 -1 -125z"/>
<path d="M535 443 c-33 -18 -85 -40 -115 -49 -103 -31 -101 -27 -45 -63 28 -17 67 -37 87 -43 34 -10 39 -9 58 13 28 34 83 144 78 161 -2 10 -19 5 -63 -19z"/>
<path d="M725 324 c-95 -39 -246 -78 -365 -94 -47 -7 -96 -14 -110 -17 l-25 -5 30 -24 c75 -61 228 -86 332 -56 71 21 158 87 203 154 61 91 58 93 -65 42z"/>
<path d="M826 303 c-24 -48 -96 -122 -144 -151 l-47 -27 40 -3 c60 -4 116 18 136 53 15 26 42 155 33 155 -2 0 -10 -12 -18 -27z"/>
<path d="M240 160 c0 -5 27 -37 59 -71 56 -59 61 -62 96 -56 20 3 64 19 98 35 l62 30 -71 0 c-83 1 -142 14 -201 47 -24 13 -43 20 -43 15z"/>
</g>
</svg>